<svg preserveAspectRatio="none" width="1440" height="489" viewBox="0 0 1440 489" fill="none" xmlns="http://www.w3.org/2000/svg">
<path d="M-3.61603e-05 51.0155C73.5 25.141 210.447 -6.42234 337.5 1.14093C533.094 12.7843 590.5 63.5164 751.5 51.0154C825.538 45.2667 1063.23 -4.46666 1178.5 1.1407C1313.88 7.72682 1440 51.0154 1440 51.0154V422.515C1440 422.515 1338.5 374.141 1213 374.141C1029.98 374.141 934.274 488.641 751.5 488.641C628 488.641 478.892 374.141 296 374.141C127.5 374.141 -2.40411e-06 437.141 -2.40411e-06 437.141C-2.40411e-06 437.141 -3.61603e-05 308.614 -3.61603e-05 51.0155Z" fill="#F8C4D9"/>
</svg>
