<svg width="266" height="347" viewBox="0 0 266 347" fill="none" xmlns="http://www.w3.org/2000/svg">
<path d="M-0.185862 106.124C23.1012 76.5951 116.571 23.9052 143.038 47.7573C179.406 80.5323 120.783 133.168 143.038 159.197C166.357 186.471 215.773 230.135 179.406 272.175C162.38 291.856 101.416 296.069 77.0393 299.726C56.2682 302.843 -3.77669 277.278 -12.7562 250.339C-27.3156 206.66 -35.3736 150.744 -0.185862 106.124Z" fill="#F9909C"/>
<path d="M71.9822 80.8361C70.6703 98.7879 60.0566 108.727 44.5965 117.753C29.656 126.476 25.449 130.365 0.774953 123.792C-25.0789 116.905 -26.9716 111.496 -31.5058 95.2272C-35.1766 82.0559 -32.7391 72.1409 -25.1619 60.7936C-17.0803 48.6909 -7.55744 44.5233 6.62436 41.5554C35.715 35.4675 74.163 50.9927 71.9822 80.8361Z" fill="#FCC944"/>
</svg>
