<svg width="262" height="389" viewBox="0 0 262 389" fill="none" xmlns="http://www.w3.org/2000/svg">
<path d="M211.26 168.388C189.463 189.214 165.013 189.671 135.533 183.37C107.162 177.306 88.9952 166.378 74.2321 141.404C59.8466 117.068 53.6167 94.7911 66.3469 69.445C76.6532 48.9248 90.8775 39.3495 113.109 33.7959C136.82 27.8727 153.365 33.4423 174.348 45.7633C217.39 71.0369 247.419 133.84 211.26 168.388Z" fill="#570A1E"/>
<path d="M22.7677 268.038C19.0262 221.119 86.2915 225.777 122.664 196.306C157.814 167.825 99.7044 159.166 158.864 128.205C224.518 93.8451 297.662 151.662 293.837 195.661C288.78 253.84 189.778 198.902 174.702 231.241C158.623 265.732 240.658 311.172 207.299 343.597C151.569 397.767 28.9878 346.038 22.7677 268.038Z" fill="#E05E80"/>
</svg>
