<svg width="396" height="554" viewBox="0 0 396 554" fill="none" xmlns="http://www.w3.org/2000/svg">
<path d="M174.896 101.189C204.472 149.097 163.636 167.042 145.306 224.931C131.437 268.734 148.607 329.401 94.2617 349.241C58.1863 362.411 22.6478 286.063 -5.21585 255.46C-33.0796 224.857 -87.1843 206.545 -80.7918 177.394C-69.6335 126.511 -32.8801 137.248 31.5593 108.035C69.3623 90.8974 149.989 60.8422 174.896 101.189Z" fill="#F9909C"/>
<path d="M141.798 432.22C98.7581 412.302 55.1466 434.221 25.5198 397.188C-17.5052 343.408 37.443 248.157 76.5967 228.387C123.711 204.597 170.083 252.84 196.29 283.061C222.497 313.283 289.53 286.207 326.82 325.422C373.301 374.301 356.864 514.871 276.086 529.345C212.379 540.759 200.534 459.403 141.798 432.22Z" fill="#FDD23E"/>
</svg>
