<svg preserveAspectRatio="none" width="430" height="519" viewBox="0 0 430 519" fill="none" xmlns="http://www.w3.org/2000/svg">
<path d="M0.385986 15.2428C22.3339 7.51176 63.2278 -1.91897 101.167 0.340843C159.574 3.81976 176.716 18.9779 224.792 15.2428C246.901 13.5251 317.88 -1.33464 352.299 0.340775C392.727 2.30863 430.386 15.2427 430.386 15.2427L430.386 499C430.386 499 400.077 484.546 362.601 484.546C307.95 484.546 279.371 518.757 224.792 518.757C187.914 518.757 143.388 484.546 88.7749 484.546C38.4589 484.546 0.385996 503.37 0.385996 503.37C0.385996 503.37 0.385986 92.2102 0.385986 15.2428Z" fill="#F8C4D9"/>
</svg>
