<svg width="200" height="244" viewBox="0 0 200 244" fill="none" xmlns="http://www.w3.org/2000/svg">
<path d="M12.137 74.7109C28.531 53.9225 94.3338 16.829 112.966 33.6208C138.569 56.6943 97.2988 93.7495 112.966 112.074C129.383 131.275 164.172 162.014 138.569 191.61C126.583 205.465 83.6646 208.431 66.5033 211.006C51.8805 213.2 9.60904 195.203 3.28746 176.238C-6.96228 145.488 -12.6351 106.123 12.137 74.7109Z" fill="#F9909C"/>
<path d="M35.0768 86.087C34.0042 100.763 25.3271 108.889 12.6878 116.269C0.473274 123.4 -2.96616 126.579 -23.1382 121.205C-44.2749 115.575 -45.8223 111.153 -49.5291 97.8524C-52.5302 87.0842 -50.5374 78.9783 -44.3428 69.7014C-37.7357 59.8069 -29.9503 56.3997 -18.3561 53.9734C5.42676 48.9962 36.8597 61.6887 35.0768 86.087Z" fill="#FCC944"/>
</svg>
