<svg width="124" height="244" viewBox="0 0 124 244" fill="none" xmlns="http://www.w3.org/2000/svg">
<path d="M129.166 118.895C113.776 133.6 96.5124 133.922 75.6967 129.473C55.6646 125.192 42.8377 117.476 32.4138 99.8421C22.2565 82.6589 17.8577 66.9299 26.8462 49.0335C34.1232 34.5447 44.1667 27.7838 59.8639 23.8626C76.606 19.6803 88.288 23.6129 103.104 32.3124C133.494 50.1576 154.697 94.5013 129.166 118.895Z" fill="#570A1E"/>
<path d="M26.076 159.256C23.4341 126.127 70.9287 129.416 96.6104 108.607C121.429 88.4971 80.3992 82.3836 122.171 60.5226C168.528 36.2617 220.173 77.0851 217.472 108.151C213.902 149.231 143.998 110.44 133.354 133.274C122 157.627 179.923 189.711 156.369 212.606C117.019 250.854 30.4678 214.33 26.076 159.256Z" fill="#E05E80"/>
</svg>
