<svg  preserveAspectRatio="none" width="430" height="1092" viewBox="0 0 430 1092" fill="none" xmlns="http://www.w3.org/2000/svg">
<path d="M0 99.1275L0 0H430V1062C430 1062 380.132 1034.13 325.337 1054.38C288.01 1068.18 254.566 1091.13 206.49 1091.13C158.413 1091.13 105.111 1062 68.2326 1062C31.3542 1062 0 1074.1 0 1074.1L0 99.1275Z" fill="#F8C4D9"/>
<path d="M0.00741577 107.835C0.00741577 107.835 23.8963 90.9375 46.8894 85.7114C78.7597 78.4676 99.4449 92.7505 121.393 85.7114C143.341 78.6723 151.851 68.6223 181.414 59.4069C210.976 50.1915 238.747 56.6197 252.334 50C265.921 43.3803 326.5 0 326.5 0H430.007L430 854.5C430 854.5 372.816 832.125 334.743 836.256C276.22 842.607 249.042 867.11 203.205 880.968C157.368 894.827 128.403 883.959 85.5521 883.959C42.7014 883.959 0 912.222 0 912.222L0.00741577 107.835Z" fill="#FFFCF4"/>
</svg>
