<svg width="159" height="196" viewBox="0 0 159 196" fill="none" xmlns="http://www.w3.org/2000/svg">
<path d="M141.647 174.676C133.48 182.19 124.517 182.174 113.763 179.7C103.37 177.31 99.8389 177.28 91.531 163.905C82.8259 149.89 84.2591 146.66 89.0902 137.433C93.0015 129.963 98.2818 126.537 106.475 124.638C115.214 122.612 121.25 124.761 128.873 129.418C144.509 138.969 155.224 162.185 141.647 174.676Z" fill="#FCC944"/>
<path d="M21.6985 142.937C-2.1602 150.693 -19.7564 143.605 -38.3181 130.465C-56.256 117.766 -63.1642 114.93 -65.5876 83.1299C-68.1269 49.8094 -61.9531 44.8382 -42.8696 31.22C-27.4196 20.1949 -13.4822 17.8831 4.5922 20.7493C23.87 23.8062 33.4983 32.6187 43.6377 47.4142C64.4364 77.7636 61.3619 130.043 21.6985 142.937Z" fill="#570A1E"/>
<path d="M113.257 131.078C107.59 154.695 85.0724 173.74 56.8253 185.208C35.4517 193.886 19.6251 199.459 -1.90263 191.176C-28.5849 180.91 -21.7589 151.021 -13.0395 135.485C-4.32003 119.949 -32.3473 100.968 -17.6609 87.674C8.71614 63.7982 39.6213 54.231 71.505 69.916C97.3919 82.6508 121.82 95.391 113.257 131.078Z" fill="#F9909C"/>
</svg>
