<svg width="113" height="146" viewBox="0 0 113 146" fill="none" xmlns="http://www.w3.org/2000/svg">
<path d="M103.376 16.878C97.1531 22.8027 90.2147 22.9094 81.8571 21.1375C73.7804 19.4251 71.0467 19.4492 64.4381 9.20569C57.5135 -1.52767 58.58 -4.04726 62.1974 -11.2537C65.126 -17.088 69.168 -19.8105 75.4852 -21.3894C82.223 -23.0735 86.9244 -21.49 92.8869 -17.9869C105.117 -10.8011 113.72 7.02854 103.376 16.878Z" fill="#570A1E"/>
<path d="M64.5258 10.1751C83.9179 13.9913 98.3329 27.6974 108.511 47.9201C120.399 71.5376 114.214 94.0667 108.511 115.633C102.536 138.23 89.9841 150.972 70.0093 138.844C57.6664 131.35 50.5956 122.325 42.4711 109.328C35.5483 98.2542 31.7291 91.2047 26.0211 76.2695C15.3566 48.3649 35.2235 4.40875 64.5258 10.1751Z" fill="#F9909C"/>
<path d="M76.0388 18.1431C75.1064 30.9098 67.5626 37.9785 56.5742 44.3975C45.9551 50.6009 42.9649 53.3662 25.4276 48.692C7.05168 43.7943 5.70639 39.9476 2.48372 28.3776C-0.12534 19.0105 1.60714 11.9593 6.99267 3.88955C12.7367 -4.7175 19.5052 -7.68136 29.5851 -9.79203C50.2615 -14.1216 77.5889 -3.08055 76.0388 18.1431Z" fill="#FCC944"/>
</svg>
