<svg width="164" height="92" viewBox="0 0 164 92" fill="none" xmlns="http://www.w3.org/2000/svg">
<path d="M163.252 42.9044C158.686 61.84 140.416 80.1142 123.835 73.4218C107.255 66.7294 91.4214 97.6103 70.4527 91.0898C48.4813 84.2575 23.7242 62.0649 36.4886 42.9044C44.3761 31.0647 57.3307 37.2423 70.4527 29.7873C81.6336 23.4351 84.9436 7.2085 99.8704 2.21458C127.759 -7.11591 170.152 14.292 163.252 42.9044Z" fill="#F9909C"/>
<path d="M57.4147 34.4962C61.4218 42.8273 59.2394 49.9701 54.666 57.9462C50.2464 65.6543 49.3682 68.4627 36.7042 71.8492C23.4347 75.3977 21.2089 73.473 15.0299 67.3873C10.0274 62.4603 8.57675 57.4206 9.04754 50.4279C9.54968 42.9695 12.7227 38.6766 18.2764 33.7257C29.6685 23.5702 50.7532 20.6464 57.4147 34.4962Z" fill="#FCC944"/>
</svg>
