<svg width="341" height="449" viewBox="0 0 341 449" fill="none" xmlns="http://www.w3.org/2000/svg">
<path d="M300.102 401.378C281.239 418.643 260.537 418.607 235.698 412.923C211.695 407.43 203.539 407.362 184.351 376.628C164.245 344.424 167.555 337.001 178.713 315.8C187.747 298.636 199.943 290.762 218.867 286.398C239.051 281.744 252.993 286.683 270.599 297.382C306.713 319.329 331.462 372.677 300.102 401.378Z" fill="#FCC944"/>
<path d="M23.0598 328.447C-32.0464 346.27 -72.6882 329.981 -115.56 299.787C-156.991 270.608 -172.946 264.091 -178.544 191.02C-184.409 114.454 -170.149 103.031 -126.072 71.7388C-90.3878 46.4046 -58.1968 41.0925 -16.4505 47.6785C28.0751 54.703 50.3134 74.9526 73.7324 108.95C121.771 178.689 114.67 298.818 23.0598 328.447Z" fill="#570A1E"/>
<path d="M235.09 301.854C221.96 356.014 169.783 399.69 104.331 425.988C54.8055 445.887 18.1332 458.67 -31.7494 439.674C-93.5756 416.13 -77.7589 347.59 -57.5549 311.961C-37.3508 276.333 -102.294 232.805 -68.2632 202.32C-7.14431 147.567 64.467 125.627 138.346 161.596C198.329 190.8 254.931 220.016 235.09 301.854Z" fill="#F9909C"/>
</svg>
