<svg width="244" height="376" viewBox="0 0 244 376" fill="none" xmlns="http://www.w3.org/2000/svg">
<path d="M225.018 98.5261C211.625 111.213 196.69 111.442 178.701 107.647C161.316 103.981 155.432 104.032 141.207 82.0967C126.303 59.1122 128.598 53.7167 136.385 38.2849C142.688 25.7913 151.388 19.9613 164.986 16.5801C179.489 12.9738 189.608 16.3648 202.442 23.8664C228.767 39.2541 247.284 77.4345 225.018 98.5261Z" fill="#570A1E"/>
<path d="M141.397 84.1726C183.137 92.3445 214.164 121.695 236.073 165C261.659 215.575 248.348 263.818 236.073 310C223.211 358.39 196.194 385.675 153.2 359.705C126.632 343.658 111.413 324.331 93.925 296.5C79.0242 272.785 70.8035 257.69 58.5175 225.707C35.5627 165.952 78.3251 71.8245 141.397 84.1726Z" fill="#F9909C"/>
<path d="M164.156 101.189C162.141 128.529 145.9 143.671 122.244 157.424C99.3839 170.715 92.9461 176.638 55.202 166.64C15.6531 156.163 12.7599 147.927 5.83076 123.152C0.220946 103.094 3.95436 87.9935 15.5512 70.7089C27.9201 52.2737 42.4904 45.9224 64.1874 41.3961C108.694 32.1115 167.506 55.7382 164.156 101.189Z" fill="#FCC944"/>
</svg>
