<svg width="389" height="194" viewBox="0 0 389 194" fill="none" xmlns="http://www.w3.org/2000/svg">
<path d="M386.346 78.7322C375.561 123.19 332.41 166.094 293.248 150.382C254.085 134.669 216.689 207.172 167.162 191.863C115.268 175.822 56.794 123.718 86.9424 78.7322C105.572 50.9345 136.17 65.4384 167.162 47.9354C193.571 33.0216 201.389 -5.0757 236.644 -16.8005C302.515 -38.7069 402.644 11.5552 386.346 78.7322Z" fill="#F9909C"/>
<path d="M135.579 58.7316C145.016 78.2531 139.876 94.9903 129.105 113.68C118.695 131.742 116.627 138.323 86.7992 146.258C55.5456 154.573 50.3032 150.063 35.7499 135.803C23.9676 124.258 20.5508 112.449 21.6596 96.063C22.8423 78.5866 30.3158 68.5271 43.3963 56.9262C70.228 33.1298 119.889 26.2786 135.579 58.7316Z" fill="#FCC944"/>
</svg>
