<svg width="245" height="352" viewBox="0 0 245 352" fill="none" xmlns="http://www.w3.org/2000/svg">
<path d="M168.947 284.005C134.355 308.121 99.7102 302.696 59.1273 286.714C19.9081 271.269 -1.76248 252.049 -20.4801 212.443C-48.508 153.136 -41.6705 141.525 -19.2888 108.801C-1.1686 82.3072 20.6207 72.2406 53.0589 69.8119C87.6568 67.2216 110.131 79.1295 137.732 101.663C194.347 147.886 226.452 243.914 168.947 284.005Z" fill="#E05E80"/>
<path d="M-45.631 76.0607C-46.3432 52.8386 -34.0439 38.6611 -15.4007 25.0093C2.61597 11.8164 7.49801 6.26267 40.0526 11.407C74.1639 16.7972 77.3159 23.4887 85.3088 43.7701C91.7797 60.1899 89.974 73.2445 81.761 88.8239C73.0012 105.441 61.3318 112.062 43.5209 117.766C6.98623 129.465 -44.447 114.666 -45.631 76.0607Z" fill="#FCC944"/>
</svg>
