<svg width="322" height="390" viewBox="0 0 322 390" fill="none" xmlns="http://www.w3.org/2000/svg">
<path d="M310.233 187.965C278.84 198.164 255.688 188.842 231.265 171.563C207.662 154.865 198.573 151.135 195.384 109.317C192.043 65.5002 200.166 58.9629 225.276 41.0549C245.605 26.5566 263.943 23.5166 287.725 27.2856C313.09 31.3056 325.758 42.8941 339.1 62.3504C366.466 102.26 362.42 171.009 310.233 187.965Z" fill="#570A1E"/>
<path d="M163.184 272.248C121.575 252.992 79.4145 274.183 50.773 238.381C9.17904 186.39 62.2997 94.3069 100.151 75.1943C145.699 52.1955 190.528 98.8338 215.864 128.05C241.199 157.267 306.002 131.092 342.052 169.002C386.987 216.256 371.097 352.15 293.005 366.142C231.417 377.177 219.967 298.527 163.184 272.248Z" fill="#F9909C"/>
</svg>
