<svg preserveAspectRatio="none" width="429" height="2149" viewBox="0 0 429 2149" fill="none" xmlns="http://www.w3.org/2000/svg">
<path d="M430 2144.5C430 2144.5 393.561 2129.59 346.986 2129.59C301.896 2129.59 266.51 2148.53 214.701 2148.53C162.892 2148.53 130.045 2129.59 80.7743 2129.59C31.5035 2129.59 -6.06831e-05 2144.5 -6.06831e-05 2144.5L0.000125079 19.6264C0.000125079 19.6264 43.2987 0.236783 80.7744 0.236786C135.425 0.236791 160.207 23.76 214.702 19.6264C269.158 15.4958 292.538 4.47386 346.986 0.236809C379.412 -2.28638 430 16.4961 430 16.4961C430 16.4961 430 2039.65 430 2144.5Z" fill="#E05E80"/>
</svg>
