<svg width="236" height="202" viewBox="0 0 236 202" fill="none" xmlns="http://www.w3.org/2000/svg">
<path d="M92.0541 172.491C57.5832 157.941 43.6302 137.356 33.9818 111.286C24.6576 86.0927 11.2837 65.0954 44.9065 51.4241C81.9764 36.3512 78.4996 79.5052 112.71 85.4397C140.407 90.2444 163.444 46.0392 181.73 63.7867C201.233 82.7158 204.45 97.7744 202.9 117.875C199.719 159.107 149.359 196.679 92.0541 172.491Z" fill="#570A1E"/>
<path d="M238.03 3.40367C271.759 13.6465 260.019 38.9858 275.39 73.757C287.022 100.067 320.211 121.438 302.914 153.263C291.431 174.388 243.123 153.263 217.365 150.436C191.608 147.609 158.621 161.421 149.548 145.087C133.711 116.576 155.414 106.394 173.569 65.9875C184.219 42.2836 209.624 -5.22236 238.03 3.40367Z" fill="#F9909C"/>
</svg>
