<svg preserveAspectRatio="none" width="430" height="696" viewBox="0 0 430 696" fill="none" xmlns="http://www.w3.org/2000/svg">
<path d="M430 695.5C430 695.5 381.476 675.376 321.305 675.376C283.241 675.376 244.939 687.077 207 684C148.593 679.263 116.458 672.395 80.7743 665.09C45.0903 657.786 1.75928e-06 675.376 1.75928e-06 675.376L-3.49039e-06 37.2644C-3.49039e-06 37.2644 43.2986 17.8858 80.7743 17.8858C135.425 17.8858 160.207 41.3955 214.701 37.2643C269.158 33.136 292.687 4.6148 347.135 0.380242C379.561 -2.14154 430 8.69751 430 8.69751C430 8.69751 430 590.707 430 695.5Z" fill="#F8C4D9"/>
</svg>
