<svg preserveAspectRatio="none" width="1440" height="1014" viewBox="0 0 1440 1014" fill="none" xmlns="http://www.w3.org/2000/svg">
<path d="M-7.87128 331.733L-7.87128 0H1439.55V916.5C1439.55 916.5 1271.69 823.218 1087.24 891C961.6 937.173 849.023 1014 687.193 1014C525.363 1014 345.943 916.5 221.806 916.5C97.6699 916.5 -7.87128 957 -7.87128 957V331.733Z" fill="#F8C4D9"/>
<path d="M-7.87128 287.739C-7.87128 287.739 72.541 231.24 149.938 213.766C257.217 189.545 326.845 237.302 400.724 213.766C474.603 190.23 503.25 156.626 602.76 125.813C702.27 95.0001 795.749 116.494 841.484 94.3599C887.218 72.2261 942.502 0 942.502 0H1439.55V726.5C1439.55 726.5 1247.06 651.685 1118.91 665.5C921.912 686.735 830.427 768.662 676.136 815C521.845 861.338 424.345 825 280.105 825C135.866 825 -7.87128 919.5 -7.87128 919.5V287.739Z" fill="#FFFCF4"/>
</svg>
