<svg preserveAspectRatio="none" width="1440" height="1442" viewBox="0 0 1440 1442" fill="none" xmlns="http://www.w3.org/2000/svg">
<path d="M1440 1428C1440 1428 1317.97 1378 1162 1378C1011 1378 892.5 1441.5 719 1441.5C545.5 1441.5 435.5 1378 270.5 1378C105.5 1378 -0.000487101 1428 -0.000487101 1428L-0.000368012 65.7822C-0.000368012 65.7822 145 0.782113 270.5 0.782124C453.517 0.78214 536.508 79.639 719 65.7822C901.367 51.9348 979.66 14.9858 1162 0.78208C1270.59 -7.67665 1440 55.2882 1440 55.2882C1440 55.2882 1440 1076.5 1440 1428Z" fill="#E05E80"/>
</svg>
