<svg width="352" height="448" viewBox="0 0 352 448" fill="none" xmlns="http://www.w3.org/2000/svg">
<path d="M9.42878 215.057C9.42883 140.197 -7.11752 85.172 58.0512 78.031C123.22 70.8899 126.5 76.9521 159.568 78.031C192.636 79.1098 193.526 81.7982 233.225 92.9116C267.747 102.576 286.492 122.575 306.677 162.383C327.159 202.777 313.663 251.017 276.276 254.543C248.623 257.151 232.722 282.325 197.068 284.697C166.687 286.717 189.639 350.331 93.2988 339.853C30.4443 333.017 9.42875 271.818 9.42878 215.057Z" fill="#E05E80"/>
<path d="M158.679 355.329C150.06 394.454 103.188 380.532 66.2523 395.48C30.5578 409.926 40.3696 449.577 -11.8835 427.224C-66.6354 403.802 -69.0783 391.283 -73.8733 353.999C-77.7553 323.814 -47.3057 324.695 -26.9934 302.118C-5.32876 278.038 -4.93775 249.954 27.2486 247.943C93.2714 243.818 173.008 290.287 158.679 355.329Z" fill="#FCC944"/>
</svg>
