<svg width="349" height="417" viewBox="0 0 349 417" fill="none" xmlns="http://www.w3.org/2000/svg">
<path d="M297.651 25.389C321.119 27.0235 324.588 51.2938 342.534 65.568C359.876 79.3625 368.02 65.7446 378.935 75.6696C400.29 95.0877 382.414 144.532 360.967 147.362C332.608 151.104 331.808 128.279 314.746 124.494C296.548 120.456 300.094 134.16 281.055 121.64C249.247 100.723 259.6 22.7388 297.651 25.389Z" fill="white"/>
<path d="M410.702 214.503C398.541 265.111 350.219 305.923 289.6 330.497C243.733 349.092 209.77 361.035 163.571 343.285C106.312 321.286 120.96 257.24 139.672 223.947C158.384 190.655 98.2374 149.982 129.754 121.495C186.359 70.3328 252.681 49.8316 321.103 83.4422C376.656 110.731 429.077 138.032 410.702 214.503Z" fill="#F9909C"/>
<path d="M168.6 299.286C183.314 278.962 201.385 287.229 224.203 286.941C246.254 286.662 253.906 272.006 274.725 296.322C296.541 321.802 294.491 329.461 287.119 351.718C281.15 369.738 271.239 379.814 254.908 388.133C237.489 397.005 224.469 395.539 207.487 389.53C172.653 377.203 144.139 333.071 168.6 299.286Z" fill="#FCC944"/>
<path d="M136.927 226.955C106.872 236.72 84.7063 227.795 61.3241 211.252C38.7277 195.265 30.0255 191.694 26.9727 151.659C23.774 109.709 31.5511 103.45 55.5906 86.3054C75.0529 72.4249 92.6098 69.5144 115.378 73.1229C139.662 76.9716 151.791 88.0662 164.564 106.693C190.764 144.903 186.891 210.721 136.927 226.955Z" fill="white"/>
</svg>
