<svg width="418" height="494" viewBox="0 0 418 494" fill="none" xmlns="http://www.w3.org/2000/svg">
<path d="M105.642 452.092C66.2119 464.903 37.1312 453.195 6.45491 431.491C-23.1905 410.517 -34.6073 405.832 -38.6124 353.307C-42.809 298.271 -32.6059 290.06 -1.06715 267.567C24.4665 249.356 47.5003 245.538 77.3713 250.272C109.231 255.321 125.143 269.877 141.901 294.315C176.274 344.444 171.193 430.795 105.642 452.092Z" fill="white"/>
<path d="M108.966 283.192C56.7043 259.006 3.74822 285.622 -32.2268 240.654C-84.4707 175.35 -17.7488 59.6894 29.7944 35.683C87.0042 6.79555 143.312 65.3753 175.135 102.073C206.957 138.77 288.352 105.893 333.633 153.51C390.073 212.863 370.114 383.552 272.028 401.127C194.671 414.987 180.288 316.199 108.966 283.192Z" fill="#FDD23E"/>
</svg>
