<svg width="399" height="616" viewBox="0 0 399 616" fill="none" xmlns="http://www.w3.org/2000/svg">
<path d="M296.936 434.911C272.968 503.096 234.934 532.436 185.814 554.128C138.345 575.09 99.4471 603.363 69.1047 540.158C35.6514 470.473 119.265 472.062 126.653 405.401C132.635 351.431 44.6769 312.254 76.7275 274.895C110.912 235.05 139.564 227.063 178.502 227.671C258.374 228.918 336.782 321.56 296.936 434.911Z" fill="#570A1E"/>
<path d="M334.232 6.57572C399.386 26.3613 376.708 75.308 406.4 142.474C428.868 193.295 492.979 234.577 459.565 296.051C437.385 336.858 344.071 296.051 294.316 290.59C244.562 285.129 180.842 311.809 163.317 280.258C132.726 225.184 174.649 205.516 209.716 127.466C230.289 81.678 279.363 -10.0867 334.232 6.57572Z" fill="#F9909C"/>
</svg>
