<svg width="235" height="361" viewBox="0 0 235 361" fill="none" xmlns="http://www.w3.org/2000/svg">
<path d="M119.881 53.6194C147.427 83.2524 94.173 98.6654 128.295 128.982C168.146 164.389 210.609 176.47 210.609 221.834C210.609 268.955 138.905 315.488 92.0775 315.488C62.9561 315.488 3.2353 304.176 -28.2836 263.905C-64.8345 217.206 -52.9229 139.895 -39.2588 112.448C2.8127 27.9389 78.8693 9.50053 119.881 53.6194Z" fill="#E05E80"/>
<path d="M22.7722 242.242C40.6742 244.514 50.1599 256.544 58.5229 273.812C66.6048 290.499 70.3134 295.265 62.6746 321.838C54.6707 349.682 49.1781 351.49 32.7075 355.666C19.3729 359.047 9.55928 355.926 -1.46558 347.138C-13.2244 337.765 -16.9831 327.195 -19.3407 311.604C-24.1769 279.625 -6.98839 238.465 22.7722 242.242Z" fill="#570A1E"/>
</svg>
