<svg preserveAspectRatio="none" width="1440" height="748" viewBox="0 0 1440 748" fill="none" xmlns="http://www.w3.org/2000/svg">
<path d="M1440 748C1440 748 1277.5 680.5 1076 680.5C948.528 680.5 750.053 717.82 623 707.5C427.406 691.612 390 637.5 270.5 613C151 588.5 -0.000235355 647.5 -0.000235355 647.5L-0.000189676 125C-0.000189676 125 145 60 270.5 60C453.517 60 536.508 138.857 719 125C901.367 111.153 980.16 15.4859 1162.5 1.2822C1271.09 -7.17647 1440 29.1803 1440 29.1803C1440 29.1803 1440 396.5 1440 748Z" fill="#F8C4D9"/>
</svg>
