<svg width="269" height="241" viewBox="0 0 269 241" fill="none" xmlns="http://www.w3.org/2000/svg">
<path d="M140.88 4.89603C189.396 19.629 172.509 56.0763 194.619 106.09C211.349 143.934 259.088 174.674 234.207 220.449C217.691 250.835 148.206 220.449 111.157 216.382C74.1084 212.316 26.6607 232.183 13.6109 208.689C-9.16808 167.679 22.0488 153.034 48.1615 94.9148C63.4803 60.8197 100.023 -7.51138 140.88 4.89603Z" fill="#F9909C"/>
<path d="M251.518 49.4216C267.563 61.8233 270.295 77.9769 269.154 98.114C268.051 117.574 269.085 123.945 247.56 143.032C225.005 163.03 218.747 161.443 200.645 155.579C185.989 150.832 178.193 142.373 172.249 128.196C165.91 113.075 167.921 101.537 173.957 86.37C186.339 55.2581 224.843 28.8047 251.518 49.4216Z" fill="#FCC944"/>
</svg>
